<svg xmlns="http://www.w3.org/2000/svg" version="1.1" xmlns:xlink="http://www.w3.org/1999/xlink" width="1000" height="1000"><g clip-path="url(#SvgjsClipPath1118)"><rect width="1000" height="1000" fill="#ffffff"></rect><g transform="matrix(15.555555555555555,0,0,15.555555555555555,328.8888888888889,150)"><svg xmlns="http://www.w3.org/2000/svg" version="1.1" xmlns:xlink="http://www.w3.org/1999/xlink" width="22" height="45"><svg width="22" height="45" viewBox="0 0 22 45" fill="none" xmlns="http://www.w3.org/2000/svg">
<g clip-path="url(#clip0_7_3)">
<path d="M9.28125 11.6602C9.28125 12.1758 9.50977 12.8496 9.9668 13.6816C9.50977 14.1973 8.9707 14.4551 8.34961 14.4551C7.81055 14.4551 7.16016 14.1152 6.39844 13.4355C5.68359 12.7793 5.32617 12.1816 5.32617 11.6426C5.32617 11.1035 5.50781 10.5762 5.87109 10.0605C6.23438 9.5332 6.71484 9.04687 7.3125 8.60156C7.92188 8.14453 8.625 7.73438 9.42188 7.37109C10.2305 7.00781 11.0742 6.69727 11.9531 6.43945C13.7695 5.90039 15.3574 5.63086 16.7168 5.63086C18.0879 5.63086 19.125 5.73633 19.8281 5.94727C20.5312 6.1582 21.0938 6.48047 21.5156 6.91406C22.2656 7.72266 22.6406 8.98242 22.6406 10.6934C22.6406 12.4043 22.5 14.0625 22.2188 15.668C21.9375 17.2617 21.5449 18.8906 21.041 20.5547C20.5371 22.207 19.9336 23.8535 19.2305 25.4941C18.5273 27.1348 17.748 28.7051 16.8926 30.2051C16.0488 31.6934 15.1406 33.0762 14.168 34.3535C13.207 35.6426 12.2109 36.7559 11.1797 37.6934C8.96484 39.709 6.86133 40.7168 4.86914 40.7168C3.47461 40.7168 2.32031 40.2773 1.40625 39.3984C0.492188 38.543 0.0351562 37.5703 0.0351562 36.4805C0.0351562 35.4023 0.216797 34.4121 0.580078 33.5098C0.955078 32.6074 1.4707 31.752 2.12695 30.9434C2.79492 30.123 3.58008 29.3672 4.48242 28.6758C5.39648 27.9727 6.38672 27.3574 7.45312 26.8301C9.72656 25.7168 12.0879 25.0781 14.5371 24.9141C17.0215 21.1875 18.6855 17.6133 19.5293 14.1914C19.8223 13.0078 19.9688 11.8711 19.9688 10.7812C19.9688 9.69141 19.7109 8.90625 19.1953 8.42578C18.6797 7.94531 17.8594 7.70508 16.7344 7.70508C15.2461 7.70508 13.6992 8.02734 12.0938 8.67188C10.2188 9.44531 9.28125 10.4414 9.28125 11.6602ZM6.08203 31.6641C6.08203 32.1914 6.32227 32.4551 6.80273 32.4551C7.82227 32.4551 9.27539 31.4062 11.1621 29.3086C11.748 28.6641 12.3398 27.9492 12.9375 27.1641C10.8398 27.5391 9.15234 28.1836 7.875 29.0977C6.67969 29.9414 6.08203 30.7969 6.08203 31.6641Z" fill="#006BFF"></path>
</g>
<defs>
<clipPath id="clip0_7_3">
<rect width="22" height="45" fill="white"></rect>
</clipPath>
<clipPath id="SvgjsClipPath1118"><rect width="1000" height="1000" x="0" y="0" rx="500" ry="500"></rect></clipPath></defs>
</svg></svg></g></g></svg>